ISO-10303-21;
HEADER;
/* Generated by software containing ST-Developer
 * from STEP Tools, Inc. (www.steptools.com) 
 */

FILE_DESCRIPTION(
/* description */ (''),
/* implementation_level */ '2;1');

FILE_NAME(
/* name */ 'BottomPart.step',
/* time_stamp */ '2026-06-13T15:18:43+09:00',
/* author */ (''),
/* organization */ (''),
/* preprocessor_version */ 'ST-DEVELOPER v20.1',
/* originating_system */ 'Autodesk Translation Framework v15.8.0.0',
/* authorisation */ '');

FILE_SCHEMA (('AUTOMOTIVE_DESIGN { 1 0 10303 214 3 1 1 }'));
ENDSEC;

DATA;
#10=MECHANICAL_DESIGN_GEOMETRIC_PRESENTATION_REPRESENTATION('',(#13),#881);
#11=SHAPE_REPRESENTATION_RELATIONSHIP('SRR','None',#887,#12);
#12=ADVANCED_BREP_SHAPE_REPRESENTATION('',(#14),#880);
#13=STYLED_ITEM('',(#898),#14);
#14=MANIFOLD_SOLID_BREP('Body9',#541);
#15=FACE_BOUND('',#89,.T.);
#16=FACE_BOUND('',#91,.T.);
#17=FACE_BOUND('',#92,.T.);
#18=FACE_BOUND('',#93,.T.);
#19=FACE_BOUND('',#94,.T.);
#20=FACE_BOUND('',#95,.T.);
#21=FACE_BOUND('',#98,.T.);
#22=FACE_BOUND('',#110,.T.);
#23=FACE_BOUND('',#113,.T.);
#24=FACE_BOUND('',#115,.T.);
#25=FACE_BOUND('',#116,.T.);
#26=FACE_BOUND('',#117,.T.);
#27=FACE_BOUND('',#118,.T.);
#28=CIRCLE('',#552,1.);
#29=CIRCLE('',#553,1.);
#30=CIRCLE('',#556,1.);
#31=CIRCLE('',#557,1.);
#32=CIRCLE('',#558,1.);
#33=CIRCLE('',#559,0.5);
#34=CIRCLE('',#560,0.499999999999998);
#35=CIRCLE('',#561,0.499999999999998);
#36=CIRCLE('',#562,0.5);
#37=CIRCLE('',#564,1.);
#38=CIRCLE('',#567,1.);
#39=CIRCLE('',#570,1.);
#40=CIRCLE('',#573,0.5);
#41=CIRCLE('',#575,0.499999999999998);
#42=CIRCLE('',#577,0.499999999999998);
#43=CIRCLE('',#579,0.5);
#44=CYLINDRICAL_SURFACE('',#551,1.);
#45=CYLINDRICAL_SURFACE('',#563,1.);
#46=CYLINDRICAL_SURFACE('',#566,1.);
#47=CYLINDRICAL_SURFACE('',#569,1.);
#48=CYLINDRICAL_SURFACE('',#572,0.5);
#49=CYLINDRICAL_SURFACE('',#574,0.499999999999998);
#50=CYLINDRICAL_SURFACE('',#576,0.499999999999998);
#51=CYLINDRICAL_SURFACE('',#578,0.5);
#52=FACE_OUTER_BOUND('',#79,.T.);
#53=FACE_OUTER_BOUND('',#80,.T.);
#54=FACE_OUTER_BOUND('',#81,.T.);
#55=FACE_OUTER_BOUND('',#82,.T.);
#56=FACE_OUTER_BOUND('',#83,.T.);
#57=FACE_OUTER_BOUND('',#84,.T.);
#58=FACE_OUTER_BOUND('',#85,.T.);
#59=FACE_OUTER_BOUND('',#86,.T.);
#60=FACE_OUTER_BOUND('',#87,.T.);
#61=FACE_OUTER_BOUND('',#88,.T.);
#62=FACE_OUTER_BOUND('',#90,.T.);
#63=FACE_OUTER_BOUND('',#96,.T.);
#64=FACE_OUTER_BOUND('',#97,.T.);
#65=FACE_OUTER_BOUND('',#99,.T.);
#66=FACE_OUTER_BOUND('',#100,.T.);
#67=FACE_OUTER_BOUND('',#101,.T.);
#68=FACE_OUTER_BOUND('',#102,.T.);
#69=FACE_OUTER_BOUND('',#103,.T.);
#70=FACE_OUTER_BOUND('',#104,.T.);
#71=FACE_OUTER_BOUND('',#105,.T.);
#72=FACE_OUTER_BOUND('',#106,.T.);
#73=FACE_OUTER_BOUND('',#107,.T.);
#74=FACE_OUTER_BOUND('',#108,.T.);
#75=FACE_OUTER_BOUND('',#109,.T.);
#76=FACE_OUTER_BOUND('',#111,.T.);
#77=FACE_OUTER_BOUND('',#112,.T.);
#78=FACE_OUTER_BOUND('',#114,.T.);
#79=EDGE_LOOP('',(#351,#352,#353,#354));
#80=EDGE_LOOP('',(#355,#356,#357,#358));
#81=EDGE_LOOP('',(#359,#360,#361,#362));
#82=EDGE_LOOP('',(#363,#364,#365,#366));
#83=EDGE_LOOP('',(#367,#368,#369,#370));
#84=EDGE_LOOP('',(#371,#372,#373,#374));
#85=EDGE_LOOP('',(#375,#376,#377,#378));
#86=EDGE_LOOP('',(#379,#380,#381,#382));
#87=EDGE_LOOP('',(#383,#384,#385,#386));
#88=EDGE_LOOP('',(#387,#388,#389,#390));
#89=EDGE_LOOP('',(#391,#392,#393,#394));
#90=EDGE_LOOP('',(#395,#396,#397,#398,#399,#400,#401,#402));
#91=EDGE_LOOP('',(#403));
#92=EDGE_LOOP('',(#404));
#93=EDGE_LOOP('',(#405));
#94=EDGE_LOOP('',(#406));
#95=EDGE_LOOP('',(#407,#408,#409,#410));
#96=EDGE_LOOP('',(#411,#412,#413,#414));
#97=EDGE_LOOP('',(#415,#416,#417,#418));
#98=EDGE_LOOP('',(#419,#420,#421,#422));
#99=EDGE_LOOP('',(#423,#424,#425,#426));
#100=EDGE_LOOP('',(#427,#428,#429,#430));
#101=EDGE_LOOP('',(#431,#432,#433,#434));
#102=EDGE_LOOP('',(#435,#436,#437,#438));
#103=EDGE_LOOP('',(#439,#440,#441,#442));
#104=EDGE_LOOP('',(#443,#444,#445,#446));
#105=EDGE_LOOP('',(#447,#448,#449,#450));
#106=EDGE_LOOP('',(#451,#452,#453,#454));
#107=EDGE_LOOP('',(#455,#456,#457,#458));
#108=EDGE_LOOP('',(#459,#460,#461,#462));
#109=EDGE_LOOP('',(#463,#464,#465,#466));
#110=EDGE_LOOP('',(#467,#468,#469,#470));
#111=EDGE_LOOP('',(#471,#472,#473,#474));
#112=EDGE_LOOP('',(#475,#476,#477,#478));
#113=EDGE_LOOP('',(#479,#480,#481,#482));
#114=EDGE_LOOP('',(#483,#484,#485,#486,#487,#488,#489,#490));
#115=EDGE_LOOP('',(#491));
#116=EDGE_LOOP('',(#492));
#117=EDGE_LOOP('',(#493));
#118=EDGE_LOOP('',(#494));
#119=LINE('',#734,#175);
#120=LINE('',#736,#176);
#121=LINE('',#738,#177);
#122=LINE('',#739,#178);
#123=LINE('',#742,#179);
#124=LINE('',#744,#180);
#125=LINE('',#745,#181);
#126=LINE('',#748,#182);
#127=LINE('',#750,#183);
#128=LINE('',#751,#184);
#129=LINE('',#753,#185);
#130=LINE('',#754,#186);
#131=LINE('',#758,#187);
#132=LINE('',#760,#188);
#133=LINE('',#762,#189);
#134=LINE('',#763,#190);
#135=LINE('',#766,#191);
#136=LINE('',#768,#192);
#137=LINE('',#769,#193);
#138=LINE('',#772,#194);
#139=LINE('',#774,#195);
#140=LINE('',#775,#196);
#141=LINE('',#777,#197);
#142=LINE('',#778,#198);
#143=LINE('',#784,#199);
#144=LINE('',#787,#200);
#145=LINE('',#790,#201);
#146=LINE('',#792,#202);
#147=LINE('',#793,#203);
#148=LINE('',#796,#204);
#149=LINE('',#800,#205);
#150=LINE('',#804,#206);
#151=LINE('',#816,#207);
#152=LINE('',#818,#208);
#153=LINE('',#820,#209);
#154=LINE('',#821,#210);
#155=LINE('',#824,#211);
#156=LINE('',#827,#212);
#157=LINE('',#830,#213);
#158=LINE('',#831,#214);
#159=LINE('',#834,#215);
#160=LINE('',#837,#216);
#161=LINE('',#840,#217);
#162=LINE('',#843,#218);
#163=LINE('',#847,#219);
#164=LINE('',#851,#220);
#165=LINE('',#855,#221);
#166=LINE('',#859,#222);
#167=LINE('',#863,#223);
#168=LINE('',#864,#224);
#169=LINE('',#865,#225);
#170=LINE('',#868,#226);
#171=LINE('',#870,#227);
#172=LINE('',#871,#228);
#173=LINE('',#873,#229);
#174=LINE('',#875,#230);
#175=VECTOR('',#590,10.);
#176=VECTOR('',#591,10.);
#177=VECTOR('',#592,10.);
#178=VECTOR('',#593,10.);
#179=VECTOR('',#596,10.);
#180=VECTOR('',#597,10.);
#181=VECTOR('',#598,10.);
#182=VECTOR('',#601,10.);
#183=VECTOR('',#602,10.);
#184=VECTOR('',#603,10.);
#185=VECTOR('',#606,10.);
#186=VECTOR('',#607,10.);
#187=VECTOR('',#610,10.);
#188=VECTOR('',#611,10.);
#189=VECTOR('',#612,10.);
#190=VECTOR('',#613,10.);
#191=VECTOR('',#616,10.);
#192=VECTOR('',#617,10.);
#193=VECTOR('',#618,10.);
#194=VECTOR('',#621,10.);
#195=VECTOR('',#622,10.);
#196=VECTOR('',#623,10.);
#197=VECTOR('',#626,10.);
#198=VECTOR('',#627,10.);
#199=VECTOR('',#632,10.);
#200=VECTOR('',#635,10.);
#201=VECTOR('',#638,10.);
#202=VECTOR('',#639,10.);
#203=VECTOR('',#640,10.);
#204=VECTOR('',#643,10.);
#205=VECTOR('',#646,10.);
#206=VECTOR('',#649,10.);
#207=VECTOR('',#660,10.);
#208=VECTOR('',#661,10.);
#209=VECTOR('',#662,10.);
#210=VECTOR('',#663,10.);
#211=VECTOR('',#666,10.);
#212=VECTOR('',#669,10.);
#213=VECTOR('',#672,10.);
#214=VECTOR('',#673,10.);
#215=VECTOR('',#676,10.);
#216=VECTOR('',#681,10.);
#217=VECTOR('',#684,10.);
#218=VECTOR('',#689,10.);
#219=VECTOR('',#694,0.5);
#220=VECTOR('',#699,0.499999999999998);
#221=VECTOR('',#704,0.499999999999998);
#222=VECTOR('',#709,0.5);
#223=VECTOR('',#712,10.);
#224=VECTOR('',#713,10.);
#225=VECTOR('',#714,10.);
#226=VECTOR('',#717,10.);
#227=VECTOR('',#718,10.);
#228=VECTOR('',#719,10.);
#229=VECTOR('',#722,10.);
#230=VECTOR('',#725,10.);
#231=VERTEX_POINT('',#732);
#232=VERTEX_POINT('',#733);
#233=VERTEX_POINT('',#735);
#234=VERTEX_POINT('',#737);
#235=VERTEX_POINT('',#741);
#236=VERTEX_POINT('',#743);
#237=VERTEX_POINT('',#747);
#238=VERTEX_POINT('',#749);
#239=VERTEX_POINT('',#756);
#240=VERTEX_POINT('',#757);
#241=VERTEX_POINT('',#759);
#242=VERTEX_POINT('',#761);
#243=VERTEX_POINT('',#765);
#244=VERTEX_POINT('',#767);
#245=VERTEX_POINT('',#771);
#246=VERTEX_POINT('',#773);
#247=VERTEX_POINT('',#780);
#248=VERTEX_POINT('',#781);
#249=VERTEX_POINT('',#783);
#250=VERTEX_POINT('',#785);
#251=VERTEX_POINT('',#789);
#252=VERTEX_POINT('',#791);
#253=VERTEX_POINT('',#795);
#254=VERTEX_POINT('',#797);
#255=VERTEX_POINT('',#799);
#256=VERTEX_POINT('',#801);
#257=VERTEX_POINT('',#803);
#258=VERTEX_POINT('',#806);
#259=VERTEX_POINT('',#808);
#260=VERTEX_POINT('',#810);
#261=VERTEX_POINT('',#812);
#262=VERTEX_POINT('',#814);
#263=VERTEX_POINT('',#815);
#264=VERTEX_POINT('',#817);
#265=VERTEX_POINT('',#819);
#266=VERTEX_POINT('',#823);
#267=VERTEX_POINT('',#825);
#268=VERTEX_POINT('',#829);
#269=VERTEX_POINT('',#833);
#270=VERTEX_POINT('',#839);
#271=VERTEX_POINT('',#845);
#272=VERTEX_POINT('',#849);
#273=VERTEX_POINT('',#853);
#274=VERTEX_POINT('',#857);
#275=VERTEX_POINT('',#861);
#276=VERTEX_POINT('',#862);
#277=VERTEX_POINT('',#867);
#278=VERTEX_POINT('',#869);
#279=EDGE_CURVE('',#231,#232,#119,.T.);
#280=EDGE_CURVE('',#233,#231,#120,.T.);
#281=EDGE_CURVE('',#234,#233,#121,.T.);
#282=EDGE_CURVE('',#234,#232,#122,.T.);
#283=EDGE_CURVE('',#232,#235,#123,.T.);
#284=EDGE_CURVE('',#236,#234,#124,.T.);
#285=EDGE_CURVE('',#236,#235,#125,.T.);
#286=EDGE_CURVE('',#235,#237,#126,.T.);
#287=EDGE_CURVE('',#238,#236,#127,.T.);
#288=EDGE_CURVE('',#238,#237,#128,.T.);
#289=EDGE_CURVE('',#237,#231,#129,.T.);
#290=EDGE_CURVE('',#233,#238,#130,.T.);
#291=EDGE_CURVE('',#239,#240,#131,.T.);
#292=EDGE_CURVE('',#239,#241,#132,.T.);
#293=EDGE_CURVE('',#242,#241,#133,.T.);
#294=EDGE_CURVE('',#240,#242,#134,.T.);
#295=EDGE_CURVE('',#243,#239,#135,.T.);
#296=EDGE_CURVE('',#243,#244,#136,.T.);
#297=EDGE_CURVE('',#241,#244,#137,.T.);
#298=EDGE_CURVE('',#245,#243,#138,.T.);
#299=EDGE_CURVE('',#245,#246,#139,.T.);
#300=EDGE_CURVE('',#244,#246,#140,.T.);
#301=EDGE_CURVE('',#240,#245,#141,.T.);
#302=EDGE_CURVE('',#246,#242,#142,.T.);
#303=EDGE_CURVE('',#247,#248,#28,.T.);
#304=EDGE_CURVE('',#248,#249,#143,.T.);
#305=EDGE_CURVE('',#249,#250,#29,.T.);
#306=EDGE_CURVE('',#250,#247,#144,.T.);
#307=EDGE_CURVE('',#251,#248,#145,.T.);
#308=EDGE_CURVE('',#252,#251,#146,.T.);
#309=EDGE_CURVE('',#249,#252,#147,.T.);
#310=EDGE_CURVE('',#247,#253,#148,.T.);
#311=EDGE_CURVE('',#254,#253,#30,.T.);
#312=EDGE_CURVE('',#254,#255,#149,.T.);
#313=EDGE_CURVE('',#256,#255,#31,.T.);
#314=EDGE_CURVE('',#256,#257,#150,.T.);
#315=EDGE_CURVE('',#251,#257,#32,.T.);
#316=EDGE_CURVE('',#258,#258,#33,.T.);
#317=EDGE_CURVE('',#259,#259,#34,.T.);
#318=EDGE_CURVE('',#260,#260,#35,.T.);
#319=EDGE_CURVE('',#261,#261,#36,.T.);
#320=EDGE_CURVE('',#262,#263,#151,.T.);
#321=EDGE_CURVE('',#263,#264,#152,.T.);
#322=EDGE_CURVE('',#264,#265,#153,.T.);
#323=EDGE_CURVE('',#265,#262,#154,.T.);
#324=EDGE_CURVE('',#255,#266,#155,.T.);
#325=EDGE_CURVE('',#266,#267,#37,.T.);
#326=EDGE_CURVE('',#267,#256,#156,.T.);
#327=EDGE_CURVE('',#268,#254,#157,.T.);
#328=EDGE_CURVE('',#266,#268,#158,.T.);
#329=EDGE_CURVE('',#253,#269,#159,.T.);
#330=EDGE_CURVE('',#269,#268,#38,.T.);
#331=EDGE_CURVE('',#269,#250,#160,.T.);
#332=EDGE_CURVE('',#257,#270,#161,.T.);
#333=EDGE_CURVE('',#270,#252,#39,.T.);
#334=EDGE_CURVE('',#270,#267,#162,.T.);
#335=EDGE_CURVE('',#271,#271,#40,.T.);
#336=EDGE_CURVE('',#271,#258,#163,.T.);
#337=EDGE_CURVE('',#272,#272,#41,.T.);
#338=EDGE_CURVE('',#272,#259,#164,.T.);
#339=EDGE_CURVE('',#273,#273,#42,.T.);
#340=EDGE_CURVE('',#273,#260,#165,.T.);
#341=EDGE_CURVE('',#274,#274,#43,.T.);
#342=EDGE_CURVE('',#274,#261,#166,.T.);
#343=EDGE_CURVE('',#275,#276,#167,.T.);
#344=EDGE_CURVE('',#275,#262,#168,.T.);
#345=EDGE_CURVE('',#276,#265,#169,.T.);
#346=EDGE_CURVE('',#276,#277,#170,.T.);
#347=EDGE_CURVE('',#277,#278,#171,.T.);
#348=EDGE_CURVE('',#278,#275,#172,.T.);
#349=EDGE_CURVE('',#263,#278,#173,.T.);
#350=EDGE_CURVE('',#277,#264,#174,.T.);
#351=ORIENTED_EDGE('',*,*,#279,.F.);
#352=ORIENTED_EDGE('',*,*,#280,.F.);
#353=ORIENTED_EDGE('',*,*,#281,.F.);
#354=ORIENTED_EDGE('',*,*,#282,.T.);
#355=ORIENTED_EDGE('',*,*,#283,.F.);
#356=ORIENTED_EDGE('',*,*,#282,.F.);
#357=ORIENTED_EDGE('',*,*,#284,.F.);
#358=ORIENTED_EDGE('',*,*,#285,.T.);
#359=ORIENTED_EDGE('',*,*,#286,.F.);
#360=ORIENTED_EDGE('',*,*,#285,.F.);
#361=ORIENTED_EDGE('',*,*,#287,.F.);
#362=ORIENTED_EDGE('',*,*,#288,.T.);
#363=ORIENTED_EDGE('',*,*,#289,.F.);
#364=ORIENTED_EDGE('',*,*,#288,.F.);
#365=ORIENTED_EDGE('',*,*,#290,.F.);
#366=ORIENTED_EDGE('',*,*,#280,.T.);
#367=ORIENTED_EDGE('',*,*,#291,.F.);
#368=ORIENTED_EDGE('',*,*,#292,.T.);
#369=ORIENTED_EDGE('',*,*,#293,.F.);
#370=ORIENTED_EDGE('',*,*,#294,.F.);
#371=ORIENTED_EDGE('',*,*,#295,.F.);
#372=ORIENTED_EDGE('',*,*,#296,.T.);
#373=ORIENTED_EDGE('',*,*,#297,.F.);
#374=ORIENTED_EDGE('',*,*,#292,.F.);
#375=ORIENTED_EDGE('',*,*,#298,.F.);
#376=ORIENTED_EDGE('',*,*,#299,.T.);
#377=ORIENTED_EDGE('',*,*,#300,.F.);
#378=ORIENTED_EDGE('',*,*,#296,.F.);
#379=ORIENTED_EDGE('',*,*,#301,.F.);
#380=ORIENTED_EDGE('',*,*,#294,.T.);
#381=ORIENTED_EDGE('',*,*,#302,.F.);
#382=ORIENTED_EDGE('',*,*,#299,.F.);
#383=ORIENTED_EDGE('',*,*,#303,.T.);
#384=ORIENTED_EDGE('',*,*,#304,.T.);
#385=ORIENTED_EDGE('',*,*,#305,.T.);
#386=ORIENTED_EDGE('',*,*,#306,.T.);
#387=ORIENTED_EDGE('',*,*,#304,.F.);
#388=ORIENTED_EDGE('',*,*,#307,.F.);
#389=ORIENTED_EDGE('',*,*,#308,.F.);
#390=ORIENTED_EDGE('',*,*,#309,.F.);
#391=ORIENTED_EDGE('',*,*,#287,.T.);
#392=ORIENTED_EDGE('',*,*,#284,.T.);
#393=ORIENTED_EDGE('',*,*,#281,.T.);
#394=ORIENTED_EDGE('',*,*,#290,.T.);
#395=ORIENTED_EDGE('',*,*,#303,.F.);
#396=ORIENTED_EDGE('',*,*,#310,.T.);
#397=ORIENTED_EDGE('',*,*,#311,.F.);
#398=ORIENTED_EDGE('',*,*,#312,.T.);
#399=ORIENTED_EDGE('',*,*,#313,.F.);
#400=ORIENTED_EDGE('',*,*,#314,.T.);
#401=ORIENTED_EDGE('',*,*,#315,.F.);
#402=ORIENTED_EDGE('',*,*,#307,.T.);
#403=ORIENTED_EDGE('',*,*,#316,.T.);
#404=ORIENTED_EDGE('',*,*,#317,.T.);
#405=ORIENTED_EDGE('',*,*,#318,.T.);
#406=ORIENTED_EDGE('',*,*,#319,.T.);
#407=ORIENTED_EDGE('',*,*,#320,.T.);
#408=ORIENTED_EDGE('',*,*,#321,.T.);
#409=ORIENTED_EDGE('',*,*,#322,.T.);
#410=ORIENTED_EDGE('',*,*,#323,.T.);
#411=ORIENTED_EDGE('',*,*,#313,.T.);
#412=ORIENTED_EDGE('',*,*,#324,.T.);
#413=ORIENTED_EDGE('',*,*,#325,.T.);
#414=ORIENTED_EDGE('',*,*,#326,.T.);
#415=ORIENTED_EDGE('',*,*,#324,.F.);
#416=ORIENTED_EDGE('',*,*,#312,.F.);
#417=ORIENTED_EDGE('',*,*,#327,.F.);
#418=ORIENTED_EDGE('',*,*,#328,.F.);
#419=ORIENTED_EDGE('',*,*,#291,.T.);
#420=ORIENTED_EDGE('',*,*,#301,.T.);
#421=ORIENTED_EDGE('',*,*,#298,.T.);
#422=ORIENTED_EDGE('',*,*,#295,.T.);
#423=ORIENTED_EDGE('',*,*,#311,.T.);
#424=ORIENTED_EDGE('',*,*,#329,.T.);
#425=ORIENTED_EDGE('',*,*,#330,.T.);
#426=ORIENTED_EDGE('',*,*,#327,.T.);
#427=ORIENTED_EDGE('',*,*,#306,.F.);
#428=ORIENTED_EDGE('',*,*,#331,.F.);
#429=ORIENTED_EDGE('',*,*,#329,.F.);
#430=ORIENTED_EDGE('',*,*,#310,.F.);
#431=ORIENTED_EDGE('',*,*,#315,.T.);
#432=ORIENTED_EDGE('',*,*,#332,.T.);
#433=ORIENTED_EDGE('',*,*,#333,.T.);
#434=ORIENTED_EDGE('',*,*,#308,.T.);
#435=ORIENTED_EDGE('',*,*,#326,.F.);
#436=ORIENTED_EDGE('',*,*,#334,.F.);
#437=ORIENTED_EDGE('',*,*,#332,.F.);
#438=ORIENTED_EDGE('',*,*,#314,.F.);
#439=ORIENTED_EDGE('',*,*,#335,.F.);
#440=ORIENTED_EDGE('',*,*,#336,.T.);
#441=ORIENTED_EDGE('',*,*,#316,.F.);
#442=ORIENTED_EDGE('',*,*,#336,.F.);
#443=ORIENTED_EDGE('',*,*,#337,.F.);
#444=ORIENTED_EDGE('',*,*,#338,.T.);
#445=ORIENTED_EDGE('',*,*,#317,.F.);
#446=ORIENTED_EDGE('',*,*,#338,.F.);
#447=ORIENTED_EDGE('',*,*,#339,.F.);
#448=ORIENTED_EDGE('',*,*,#340,.T.);
#449=ORIENTED_EDGE('',*,*,#318,.F.);
#450=ORIENTED_EDGE('',*,*,#340,.F.);
#451=ORIENTED_EDGE('',*,*,#341,.F.);
#452=ORIENTED_EDGE('',*,*,#342,.T.);
#453=ORIENTED_EDGE('',*,*,#319,.F.);
#454=ORIENTED_EDGE('',*,*,#342,.F.);
#455=ORIENTED_EDGE('',*,*,#343,.F.);
#456=ORIENTED_EDGE('',*,*,#344,.T.);
#457=ORIENTED_EDGE('',*,*,#323,.F.);
#458=ORIENTED_EDGE('',*,*,#345,.F.);
#459=ORIENTED_EDGE('',*,*,#343,.T.);
#460=ORIENTED_EDGE('',*,*,#346,.T.);
#461=ORIENTED_EDGE('',*,*,#347,.T.);
#462=ORIENTED_EDGE('',*,*,#348,.T.);
#463=ORIENTED_EDGE('',*,*,#348,.F.);
#464=ORIENTED_EDGE('',*,*,#349,.F.);
#465=ORIENTED_EDGE('',*,*,#320,.F.);
#466=ORIENTED_EDGE('',*,*,#344,.F.);
#467=ORIENTED_EDGE('',*,*,#286,.T.);
#468=ORIENTED_EDGE('',*,*,#289,.T.);
#469=ORIENTED_EDGE('',*,*,#279,.T.);
#470=ORIENTED_EDGE('',*,*,#283,.T.);
#471=ORIENTED_EDGE('',*,*,#349,.T.);
#472=ORIENTED_EDGE('',*,*,#347,.F.);
#473=ORIENTED_EDGE('',*,*,#350,.T.);
#474=ORIENTED_EDGE('',*,*,#321,.F.);
#475=ORIENTED_EDGE('',*,*,#346,.F.);
#476=ORIENTED_EDGE('',*,*,#345,.T.);
#477=ORIENTED_EDGE('',*,*,#322,.F.);
#478=ORIENTED_EDGE('',*,*,#350,.F.);
#479=ORIENTED_EDGE('',*,*,#293,.T.);
#480=ORIENTED_EDGE('',*,*,#297,.T.);
#481=ORIENTED_EDGE('',*,*,#300,.T.);
#482=ORIENTED_EDGE('',*,*,#302,.T.);
#483=ORIENTED_EDGE('',*,*,#305,.F.);
#484=ORIENTED_EDGE('',*,*,#309,.T.);
#485=ORIENTED_EDGE('',*,*,#333,.F.);
#486=ORIENTED_EDGE('',*,*,#334,.T.);
#487=ORIENTED_EDGE('',*,*,#325,.F.);
#488=ORIENTED_EDGE('',*,*,#328,.T.);
#489=ORIENTED_EDGE('',*,*,#330,.F.);
#490=ORIENTED_EDGE('',*,*,#331,.T.);
#491=ORIENTED_EDGE('',*,*,#335,.T.);
#492=ORIENTED_EDGE('',*,*,#337,.T.);
#493=ORIENTED_EDGE('',*,*,#339,.T.);
#494=ORIENTED_EDGE('',*,*,#341,.T.);
#495=PLANE('',#543);
#496=PLANE('',#544);
#497=PLANE('',#545);
#498=PLANE('',#546);
#499=PLANE('',#547);
#500=PLANE('',#548);
#501=PLANE('',#549);
#502=PLANE('',#550);
#503=PLANE('',#554);
#504=PLANE('',#555);
#505=PLANE('',#565);
#506=PLANE('',#568);
#507=PLANE('',#571);
#508=PLANE('',#580);
#509=PLANE('',#581);
#510=PLANE('',#582);
#511=PLANE('',#583);
#512=PLANE('',#584);
#513=PLANE('',#585);
#514=ADVANCED_FACE('',(#52),#495,.F.);
#515=ADVANCED_FACE('',(#53),#496,.F.);
#516=ADVANCED_FACE('',(#54),#497,.F.);
#517=ADVANCED_FACE('',(#55),#498,.F.);
#518=ADVANCED_FACE('',(#56),#499,.F.);
#519=ADVANCED_FACE('',(#57),#500,.F.);
#520=ADVANCED_FACE('',(#58),#501,.F.);
#521=ADVANCED_FACE('',(#59),#502,.F.);
#522=ADVANCED_FACE('',(#60),#44,.T.);
#523=ADVANCED_FACE('',(#61,#15),#503,.T.);
#524=ADVANCED_FACE('',(#62,#16,#17,#18,#19,#20),#504,.T.);
#525=ADVANCED_FACE('',(#63),#45,.T.);
#526=ADVANCED_FACE('',(#64,#21),#505,.T.);
#527=ADVANCED_FACE('',(#65),#46,.T.);
#528=ADVANCED_FACE('',(#66),#506,.T.);
#529=ADVANCED_FACE('',(#67),#47,.T.);
#530=ADVANCED_FACE('',(#68),#507,.T.);
#531=ADVANCED_FACE('',(#69),#48,.F.);
#532=ADVANCED_FACE('',(#70),#49,.F.);
#533=ADVANCED_FACE('',(#71),#50,.F.);
#534=ADVANCED_FACE('',(#72),#51,.F.);
#535=ADVANCED_FACE('',(#73),#508,.T.);
#536=ADVANCED_FACE('',(#74),#509,.T.);
#537=ADVANCED_FACE('',(#75,#22),#510,.T.);
#538=ADVANCED_FACE('',(#76),#511,.T.);
#539=ADVANCED_FACE('',(#77,#23),#512,.T.);
#540=ADVANCED_FACE('',(#78,#24,#25,#26,#27),#513,.F.);
#541=CLOSED_SHELL('',(#514,#515,#516,#517,#518,#519,#520,#521,#522,#523,
#524,#525,#526,#527,#528,#529,#530,#531,#532,#533,#534,#535,#536,#537,#538,
#539,#540));
#542=AXIS2_PLACEMENT_3D('',#730,#586,#587);
#543=AXIS2_PLACEMENT_3D('',#731,#588,#589);
#544=AXIS2_PLACEMENT_3D('',#740,#594,#595);
#545=AXIS2_PLACEMENT_3D('',#746,#599,#600);
#546=AXIS2_PLACEMENT_3D('',#752,#604,#605);
#547=AXIS2_PLACEMENT_3D('',#755,#608,#609);
#548=AXIS2_PLACEMENT_3D('',#764,#614,#615);
#549=AXIS2_PLACEMENT_3D('',#770,#619,#620);
#550=AXIS2_PLACEMENT_3D('',#776,#624,#625);
#551=AXIS2_PLACEMENT_3D('',#779,#628,#629);
#552=AXIS2_PLACEMENT_3D('',#782,#630,#631);
#553=AXIS2_PLACEMENT_3D('',#786,#633,#634);
#554=AXIS2_PLACEMENT_3D('',#788,#636,#637);
#555=AXIS2_PLACEMENT_3D('',#794,#641,#642);
#556=AXIS2_PLACEMENT_3D('',#798,#644,#645);
#557=AXIS2_PLACEMENT_3D('',#802,#647,#648);
#558=AXIS2_PLACEMENT_3D('',#805,#650,#651);
#559=AXIS2_PLACEMENT_3D('',#807,#652,#653);
#560=AXIS2_PLACEMENT_3D('',#809,#654,#655);
#561=AXIS2_PLACEMENT_3D('',#811,#656,#657);
#562=AXIS2_PLACEMENT_3D('',#813,#658,#659);
#563=AXIS2_PLACEMENT_3D('',#822,#664,#665);
#564=AXIS2_PLACEMENT_3D('',#826,#667,#668);
#565=AXIS2_PLACEMENT_3D('',#828,#670,#671);
#566=AXIS2_PLACEMENT_3D('',#832,#674,#675);
#567=AXIS2_PLACEMENT_3D('',#835,#677,#678);
#568=AXIS2_PLACEMENT_3D('',#836,#679,#680);
#569=AXIS2_PLACEMENT_3D('',#838,#682,#683);
#570=AXIS2_PLACEMENT_3D('',#841,#685,#686);
#571=AXIS2_PLACEMENT_3D('',#842,#687,#688);
#572=AXIS2_PLACEMENT_3D('',#844,#690,#691);
#573=AXIS2_PLACEMENT_3D('',#846,#692,#693);
#574=AXIS2_PLACEMENT_3D('',#848,#695,#696);
#575=AXIS2_PLACEMENT_3D('',#850,#697,#698);
#576=AXIS2_PLACEMENT_3D('',#852,#700,#701);
#577=AXIS2_PLACEMENT_3D('',#854,#702,#703);
#578=AXIS2_PLACEMENT_3D('',#856,#705,#706);
#579=AXIS2_PLACEMENT_3D('',#858,#707,#708);
#580=AXIS2_PLACEMENT_3D('',#860,#710,#711);
#581=AXIS2_PLACEMENT_3D('',#866,#715,#716);
#582=AXIS2_PLACEMENT_3D('',#872,#720,#721);
#583=AXIS2_PLACEMENT_3D('',#874,#723,#724);
#584=AXIS2_PLACEMENT_3D('',#876,#726,#727);
#585=AXIS2_PLACEMENT_3D('',#877,#728,#729);
#586=DIRECTION('axis',(0.,0.,1.));
#587=DIRECTION('refdir',(1.,0.,0.));
#588=DIRECTION('center_axis',(0.,-1.,0.));
#589=DIRECTION('ref_axis',(0.,0.,-1.));
#590=DIRECTION('',(-1.28349482615625E-16,0.,1.));
#591=DIRECTION('',(1.,0.,0.));
#592=DIRECTION('',(0.,0.,-1.));
#593=DIRECTION('',(1.,0.,0.));
#594=DIRECTION('center_axis',(0.,0.,1.));
#595=DIRECTION('ref_axis',(0.,-1.,0.));
#596=DIRECTION('',(1.55855602435961E-32,1.,0.));
#597=DIRECTION('',(0.,-1.,0.));
#598=DIRECTION('',(1.,0.,0.));
#599=DIRECTION('center_axis',(0.,1.,0.));
#600=DIRECTION('ref_axis',(0.,0.,1.));
#601=DIRECTION('',(1.28349482615625E-16,0.,-1.));
#602=DIRECTION('',(0.,0.,1.));
#603=DIRECTION('',(1.,0.,0.));
#604=DIRECTION('center_axis',(0.,0.,-1.));
#605=DIRECTION('ref_axis',(0.,1.,0.));
#606=DIRECTION('',(-1.55855602435961E-32,-1.,0.));
#607=DIRECTION('',(0.,1.,0.));
#608=DIRECTION('center_axis',(0.,1.,0.));
#609=DIRECTION('ref_axis',(0.,0.,-1.));
#610=DIRECTION('',(0.,0.,-1.));
#611=DIRECTION('',(-1.,0.,0.));
#612=DIRECTION('',(0.,0.,1.));
#613=DIRECTION('',(-1.,0.,0.));
#614=DIRECTION('center_axis',(0.,0.,1.));
#615=DIRECTION('ref_axis',(0.,1.,0.));
#616=DIRECTION('',(0.,1.,0.));
#617=DIRECTION('',(-1.,0.,0.));
#618=DIRECTION('',(0.,-1.,0.));
#619=DIRECTION('center_axis',(0.,-1.,0.));
#620=DIRECTION('ref_axis',(0.,0.,1.));
#621=DIRECTION('',(0.,0.,1.));
#622=DIRECTION('',(-1.,0.,0.));
#623=DIRECTION('',(0.,0.,-1.));
#624=DIRECTION('center_axis',(0.,0.,-1.));
#625=DIRECTION('ref_axis',(0.,-1.,0.));
#626=DIRECTION('',(0.,-1.,0.));
#627=DIRECTION('',(0.,1.,0.));
#628=DIRECTION('center_axis',(0.,0.,1.));
#629=DIRECTION('ref_axis',(-0.707106781186549,-0.707106781186546,0.));
#630=DIRECTION('center_axis',(0.,-3.20873706539063E-16,-1.));
#631=DIRECTION('ref_axis',(-0.707106781186549,-0.707106781186546,0.));
#632=DIRECTION('',(0.,0.,-1.));
#633=DIRECTION('center_axis',(0.,0.,1.));
#634=DIRECTION('ref_axis',(-0.707106781186549,-0.707106781186546,0.));
#635=DIRECTION('',(0.,0.,1.));
#636=DIRECTION('center_axis',(-1.,0.,0.));
#637=DIRECTION('ref_axis',(0.,-1.,0.));
#638=DIRECTION('',(0.,-1.,0.));
#639=DIRECTION('',(0.,0.,1.));
#640=DIRECTION('',(0.,1.,0.));
#641=DIRECTION('center_axis',(0.,3.20873706539063E-16,1.));
#642=DIRECTION('ref_axis',(1.,0.,0.));
#643=DIRECTION('',(1.,0.,1.23165366794353E-16));
#644=DIRECTION('center_axis',(0.,-3.20873706539063E-16,-1.));
#645=DIRECTION('ref_axis',(0.707106781186548,-0.707106781186548,0.));
#646=DIRECTION('',(0.,1.,1.11022302462516E-16));
#647=DIRECTION('center_axis',(0.,-3.20873706539063E-16,-1.));
#648=DIRECTION('ref_axis',(0.707106781186546,0.707106781186549,0.));
#649=DIRECTION('',(-1.,0.,0.));
#650=DIRECTION('center_axis',(0.,-3.20873706539063E-16,-1.));
#651=DIRECTION('ref_axis',(-0.707106781186548,0.707106781186547,0.));
#652=DIRECTION('center_axis',(0.,-3.20873706539063E-16,-1.));
#653=DIRECTION('ref_axis',(1.,0.,0.));
#654=DIRECTION('center_axis',(0.,-3.20873706539063E-16,-1.));
#655=DIRECTION('ref_axis',(1.,0.,0.));
#656=DIRECTION('center_axis',(0.,-3.20873706539063E-16,-1.));
#657=DIRECTION('ref_axis',(1.,0.,0.));
#658=DIRECTION('center_axis',(0.,-3.20873706539063E-16,-1.));
#659=DIRECTION('ref_axis',(1.,0.,0.));
#660=DIRECTION('',(0.,1.,1.21430643318376E-16));
#661=DIRECTION('',(1.,0.,1.21430643318376E-16));
#662=DIRECTION('',(0.,-1.,3.45209971719385E-16));
#663=DIRECTION('',(-1.,0.,0.));
#664=DIRECTION('center_axis',(0.,0.,1.));
#665=DIRECTION('ref_axis',(0.707106781186546,0.707106781186549,0.));
#666=DIRECTION('',(0.,0.,-1.));
#667=DIRECTION('center_axis',(0.,0.,1.));
#668=DIRECTION('ref_axis',(0.707106781186546,0.707106781186549,0.));
#669=DIRECTION('',(0.,0.,1.));
#670=DIRECTION('center_axis',(1.,0.,0.));
#671=DIRECTION('ref_axis',(0.,1.,0.));
#672=DIRECTION('',(0.,0.,1.));
#673=DIRECTION('',(0.,-1.,0.));
#674=DIRECTION('center_axis',(0.,0.,1.));
#675=DIRECTION('ref_axis',(0.707106781186548,-0.707106781186548,0.));
#676=DIRECTION('',(0.,0.,-1.));
#677=DIRECTION('center_axis',(0.,0.,1.));
#678=DIRECTION('ref_axis',(0.707106781186548,-0.707106781186548,0.));
#679=DIRECTION('center_axis',(0.,-1.,0.));
#680=DIRECTION('ref_axis',(1.,0.,0.));
#681=DIRECTION('',(-1.,0.,0.));
#682=DIRECTION('center_axis',(0.,0.,1.));
#683=DIRECTION('ref_axis',(-0.707106781186548,0.707106781186547,0.));
#684=DIRECTION('',(0.,0.,-1.));
#685=DIRECTION('center_axis',(0.,0.,1.));
#686=DIRECTION('ref_axis',(-0.707106781186548,0.707106781186547,0.));
#687=DIRECTION('center_axis',(0.,1.,0.));
#688=DIRECTION('ref_axis',(-1.,0.,0.));
#689=DIRECTION('',(1.,0.,0.));
#690=DIRECTION('center_axis',(0.,0.,1.));
#691=DIRECTION('ref_axis',(1.,0.,0.));
#692=DIRECTION('center_axis',(0.,0.,1.));
#693=DIRECTION('ref_axis',(1.,0.,0.));
#694=DIRECTION('',(0.,0.,1.));
#695=DIRECTION('center_axis',(0.,0.,1.));
#696=DIRECTION('ref_axis',(1.,0.,0.));
#697=DIRECTION('center_axis',(0.,0.,1.));
#698=DIRECTION('ref_axis',(1.,0.,0.));
#699=DIRECTION('',(0.,0.,1.));
#700=DIRECTION('center_axis',(0.,0.,1.));
#701=DIRECTION('ref_axis',(1.,0.,0.));
#702=DIRECTION('center_axis',(0.,0.,1.));
#703=DIRECTION('ref_axis',(1.,0.,0.));
#704=DIRECTION('',(0.,0.,1.));
#705=DIRECTION('center_axis',(0.,0.,1.));
#706=DIRECTION('ref_axis',(1.,0.,0.));
#707=DIRECTION('center_axis',(0.,0.,1.));
#708=DIRECTION('ref_axis',(1.,0.,0.));
#709=DIRECTION('',(0.,0.,1.));
#710=DIRECTION('center_axis',(0.,1.,-5.133979304625E-16));
#711=DIRECTION('ref_axis',(-1.,0.,0.));
#712=DIRECTION('',(1.,0.,0.));
#713=DIRECTION('',(-1.28349482615625E-16,0.,1.));
#714=DIRECTION('',(0.,3.52961077192969E-16,1.));
#715=DIRECTION('center_axis',(0.,0.,1.));
#716=DIRECTION('ref_axis',(1.,0.,0.));
#717=DIRECTION('',(0.,1.,0.));
#718=DIRECTION('',(-1.,3.89639006089903E-32,0.));
#719=DIRECTION('',(-1.55855602435961E-32,-1.,0.));
#720=DIRECTION('center_axis',(1.,-1.55855602435961E-32,1.28349482615625E-16));
#721=DIRECTION('ref_axis',(0.,1.,1.21430643318376E-16));
#722=DIRECTION('',(1.28349482615625E-16,-3.20873706539063E-16,-1.));
#723=DIRECTION('center_axis',(-3.89639006089903E-32,-1.,3.20873706539063E-16));
#724=DIRECTION('ref_axis',(1.,0.,1.21430643318376E-16));
#725=DIRECTION('',(0.,3.20873706539063E-16,1.));
#726=DIRECTION('center_axis',(-1.,0.,0.));
#727=DIRECTION('ref_axis',(0.,-1.,3.45209971719385E-16));
#728=DIRECTION('center_axis',(0.,0.,1.));
#729=DIRECTION('ref_axis',(1.,0.,0.));
#730=CARTESIAN_POINT('',(0.,0.,0.));
#731=CARTESIAN_POINT('Origin',(-5.,-66.8920576812483,7.69224999955487));
#732=CARTESIAN_POINT('',(-2.5,-66.8920576812483,2.69224999955487));
#733=CARTESIAN_POINT('',(-2.5,-66.8920576812483,7.69224999955487));
#734=CARTESIAN_POINT('',(-2.5,-66.8920576812483,3.34612499977743));
#735=CARTESIAN_POINT('',(-5.,-66.8920576812483,2.69224999955487));
#736=CARTESIAN_POINT('',(-5.,-66.8920576812483,2.69224999955487));
#737=CARTESIAN_POINT('',(-5.,-66.8920576812483,7.69224999955487));
#738=CARTESIAN_POINT('',(-5.,-66.8920576812483,2.09612499977744));
#739=CARTESIAN_POINT('',(-5.,-66.8920576812483,7.69224999955487));
#740=CARTESIAN_POINT('Origin',(-5.,-49.8920576812483,7.69224999955487));
#741=CARTESIAN_POINT('',(-2.5,-49.8920576812483,7.69224999955487));
#742=CARTESIAN_POINT('',(-2.5,-61.1960288406242,7.69224999955487));
#743=CARTESIAN_POINT('',(-5.,-49.8920576812483,7.69224999955487));
#744=CARTESIAN_POINT('',(-5.,-22.4460288406241,7.69224999955487));
#745=CARTESIAN_POINT('',(-5.,-49.8920576812483,7.69224999955487));
#746=CARTESIAN_POINT('Origin',(-5.,-49.8920576812483,2.69224999955487));
#747=CARTESIAN_POINT('',(-2.5,-49.8920576812483,2.69224999955487));
#748=CARTESIAN_POINT('',(-2.5,-49.8920576812483,0.846124999777431));
#749=CARTESIAN_POINT('',(-5.,-49.8920576812483,2.69224999955487));
#750=CARTESIAN_POINT('',(-5.,-49.8920576812483,-0.403875000222565));
#751=CARTESIAN_POINT('',(-5.,-49.8920576812483,2.69224999955487));
#752=CARTESIAN_POINT('Origin',(-5.,-66.8920576812483,2.69224999955487));
#753=CARTESIAN_POINT('',(-2.5,-69.6960288406241,2.69224999955487));
#754=CARTESIAN_POINT('',(-5.,-30.9460288406241,2.69224999955487));
#755=CARTESIAN_POINT('Origin',(75.,-8.83174284751362,10.7674673072427));
#756=CARTESIAN_POINT('',(75.,-8.83174284751362,10.7674673072427));
#757=CARTESIAN_POINT('',(75.,-8.83174284751362,3.87144891945804));
#758=CARTESIAN_POINT('',(75.,-8.83174284751362,3.63373365362132));
#759=CARTESIAN_POINT('',(72.5,-8.83174284751362,10.7674673072427));
#760=CARTESIAN_POINT('',(75.,-8.83174284751362,10.7674673072427));
#761=CARTESIAN_POINT('',(72.5,-8.83174284751362,3.87144891945804));
#762=CARTESIAN_POINT('',(72.5,-8.83174284751362,4.88373365362133));
#763=CARTESIAN_POINT('',(75.,-8.83174284751362,3.87144891945804));
#764=CARTESIAN_POINT('Origin',(75.,-32.0925741343973,10.7674673072427));
#765=CARTESIAN_POINT('',(75.,-32.0925741343973,10.7674673072427));
#766=CARTESIAN_POINT('',(75.,-53.5462870671987,10.7674673072427));
#767=CARTESIAN_POINT('',(72.5,-32.0925741343973,10.7674673072427));
#768=CARTESIAN_POINT('',(75.,-32.0925741343973,10.7674673072427));
#769=CARTESIAN_POINT('',(72.5,-14.7962870671987,10.7674673072427));
#770=CARTESIAN_POINT('Origin',(75.,-32.0925741343973,3.87144891945804));
#771=CARTESIAN_POINT('',(75.,-32.0925741343973,3.87144891945804));
#772=CARTESIAN_POINT('',(75.,-32.0925741343973,0.185724459729018));
#773=CARTESIAN_POINT('',(72.5,-32.0925741343973,3.87144891945804));
#774=CARTESIAN_POINT('',(75.,-32.0925741343973,3.87144891945804));
#775=CARTESIAN_POINT('',(72.5,-32.0925741343973,1.43572445972902));
#776=CARTESIAN_POINT('Origin',(75.,-8.83174284751362,3.87144891945804));
#777=CARTESIAN_POINT('',(75.,-41.9158714237568,3.87144891945804));
#778=CARTESIAN_POINT('',(72.5,-3.16587142375681,3.87144891945804));
#779=CARTESIAN_POINT('Origin',(-4.,-74.,-3.5));
#780=CARTESIAN_POINT('',(-4.,-75.,16.3));
#781=CARTESIAN_POINT('',(-5.,-74.,16.3));
#782=CARTESIAN_POINT('Origin',(-4.,-74.,16.3));
#783=CARTESIAN_POINT('',(-5.,-74.,-3.5));
#784=CARTESIAN_POINT('',(-5.,-74.,-3.5));
#785=CARTESIAN_POINT('',(-4.,-75.,-3.5));
#786=CARTESIAN_POINT('Origin',(-4.,-74.,-3.5));
#787=CARTESIAN_POINT('',(-4.,-75.,-3.5));
#788=CARTESIAN_POINT('Origin',(-5.,5.,-3.5));
#789=CARTESIAN_POINT('',(-5.,4.,16.3));
#790=CARTESIAN_POINT('',(-5.,2.5,16.3));
#791=CARTESIAN_POINT('',(-5.,4.,-3.5));
#792=CARTESIAN_POINT('',(-5.,4.,-3.5));
#793=CARTESIAN_POINT('',(-5.,-75.,-3.5));
#794=CARTESIAN_POINT('Origin',(35.,3.75000000000001,16.3));
#795=CARTESIAN_POINT('',(74.,-75.,16.3));
#796=CARTESIAN_POINT('',(75.0000000000001,-75.,16.3));
#797=CARTESIAN_POINT('',(75.,-74.,16.3));
#798=CARTESIAN_POINT('Origin',(74.,-74.,16.3));
#799=CARTESIAN_POINT('',(75.,3.99999999999999,16.3));
#800=CARTESIAN_POINT('',(75.,-72.5,16.3));
#801=CARTESIAN_POINT('',(74.,5.00000000000001,16.3));
#802=CARTESIAN_POINT('Origin',(74.,4.,16.3));
#803=CARTESIAN_POINT('',(-4.,5.00000000000001,16.3));
#804=CARTESIAN_POINT('',(-5.,5.00000000000001,16.3));
#805=CARTESIAN_POINT('Origin',(-4.,4.,16.3));
#806=CARTESIAN_POINT('',(-4.25,3.75,16.3));
#807=CARTESIAN_POINT('Origin',(-3.75,3.75,16.3));
#808=CARTESIAN_POINT('',(73.2500005587935,3.7500000372529,16.3));
#809=CARTESIAN_POINT('Origin',(73.7500005587935,3.7500000372529,16.3));
#810=CARTESIAN_POINT('',(73.2500005587935,-73.7500005587935,16.3));
#811=CARTESIAN_POINT('Origin',(73.7500005587935,-73.7500005587935,16.3));
#812=CARTESIAN_POINT('',(-4.25,-73.75,16.3));
#813=CARTESIAN_POINT('Origin',(-3.75,-73.75,16.3));
#814=CARTESIAN_POINT('',(-2.5,-72.5,16.3));
#815=CARTESIAN_POINT('',(-2.5,2.5,16.3));
#816=CARTESIAN_POINT('',(-2.5,5.,16.3));
#817=CARTESIAN_POINT('',(72.5,2.50000000000001,16.3));
#818=CARTESIAN_POINT('',(75.,2.5,16.3));
#819=CARTESIAN_POINT('',(72.5,-72.5,16.3));
#820=CARTESIAN_POINT('',(72.5,5.00000000000001,16.3));
#821=CARTESIAN_POINT('',(-5.,-72.5,16.3));
#822=CARTESIAN_POINT('Origin',(74.,4.,-3.5));
#823=CARTESIAN_POINT('',(75.,4.,-3.5));
#824=CARTESIAN_POINT('',(75.,4.,-3.5));
#825=CARTESIAN_POINT('',(74.,5.,-3.5));
#826=CARTESIAN_POINT('Origin',(74.,4.,-3.5));
#827=CARTESIAN_POINT('',(74.,5.,-3.5));
#828=CARTESIAN_POINT('Origin',(75.,-75.,-3.5));
#829=CARTESIAN_POINT('',(75.,-74.,-3.5));
#830=CARTESIAN_POINT('',(75.,-74.,-3.5));
#831=CARTESIAN_POINT('',(75.,5.,-3.5));
#832=CARTESIAN_POINT('Origin',(74.,-74.,-3.5));
#833=CARTESIAN_POINT('',(74.,-75.,-3.5));
#834=CARTESIAN_POINT('',(74.,-75.,-3.5));
#835=CARTESIAN_POINT('Origin',(74.,-74.,-3.5));
#836=CARTESIAN_POINT('Origin',(-5.,-75.,-3.5));
#837=CARTESIAN_POINT('',(75.,-75.,-3.5));
#838=CARTESIAN_POINT('Origin',(-4.,4.,-3.5));
#839=CARTESIAN_POINT('',(-4.,5.,-3.5));
#840=CARTESIAN_POINT('',(-4.,5.,-3.5));
#841=CARTESIAN_POINT('Origin',(-4.,4.,-3.5));
#842=CARTESIAN_POINT('Origin',(75.,5.,-3.5));
#843=CARTESIAN_POINT('',(-5.,5.,-3.5));
#844=CARTESIAN_POINT('Origin',(-3.75,3.75,-1.));
#845=CARTESIAN_POINT('',(-4.25,3.75,-3.5));
#846=CARTESIAN_POINT('Origin',(-3.75,3.75,-3.5));
#847=CARTESIAN_POINT('',(-4.25,3.75,-1.));
#848=CARTESIAN_POINT('Origin',(73.7500005587935,3.7500000372529,-0.999999999999996));
#849=CARTESIAN_POINT('',(73.2500005587935,3.7500000372529,-3.5));
#850=CARTESIAN_POINT('Origin',(73.7500005587935,3.7500000372529,-3.5));
#851=CARTESIAN_POINT('',(73.2500005587935,3.7500000372529,-0.999999999999996));
#852=CARTESIAN_POINT('Origin',(73.7500005587935,-73.7500005587935,-0.999999999999966));
#853=CARTESIAN_POINT('',(73.2500005587935,-73.7500005587935,-3.5));
#854=CARTESIAN_POINT('Origin',(73.7500005587935,-73.7500005587935,-3.5));
#855=CARTESIAN_POINT('',(73.2500005587935,-73.7500005587935,-0.999999999999966));
#856=CARTESIAN_POINT('Origin',(-3.75,-73.75,-0.999999999999992));
#857=CARTESIAN_POINT('',(-4.25,-73.75,-3.5));
#858=CARTESIAN_POINT('Origin',(-3.75,-73.75,-3.5));
#859=CARTESIAN_POINT('',(-4.25,-73.75,-0.999999999999992));
#860=CARTESIAN_POINT('Origin',(72.5,-72.5,-0.999999999999965));
#861=CARTESIAN_POINT('',(-2.5,-72.5,-0.999999999999965));
#862=CARTESIAN_POINT('',(72.5,-72.5,-0.999999999999965));
#863=CARTESIAN_POINT('',(53.75,-72.5,-1.));
#864=CARTESIAN_POINT('',(-2.5,-72.5,-0.999999999999965));
#865=CARTESIAN_POINT('',(72.5,-72.5,-0.999999999999965));
#866=CARTESIAN_POINT('Origin',(35.,-35.,-1.));
#867=CARTESIAN_POINT('',(72.5,2.5,-0.999999999999991));
#868=CARTESIAN_POINT('',(72.5,-16.25,-1.));
#869=CARTESIAN_POINT('',(-2.5,2.5,-1.));
#870=CARTESIAN_POINT('',(53.75,2.5,-1.));
#871=CARTESIAN_POINT('',(-2.5,-53.75,-1.));
#872=CARTESIAN_POINT('Origin',(-2.5,-72.5,-1.00000000000001));
#873=CARTESIAN_POINT('',(-2.5,2.5,-1.00000000000002));
#874=CARTESIAN_POINT('Origin',(-2.5,2.5,-1.));
#875=CARTESIAN_POINT('',(72.5,2.5,-0.999999999999996));
#876=CARTESIAN_POINT('Origin',(72.5,2.5,-0.999999999999992));
#877=CARTESIAN_POINT('Origin',(35.,-35.,-3.5));
#878=UNCERTAINTY_MEASURE_WITH_UNIT(LENGTH_MEASURE(0.01),#882,
'DISTANCE_ACCURACY_VALUE',
'Maximum model space distance between geometric entities at asserted c
onnectivities');
#879=UNCERTAINTY_MEASURE_WITH_UNIT(LENGTH_MEASURE(0.01),#882,
'DISTANCE_ACCURACY_VALUE',
'Maximum model space distance between geometric entities at asserted c
onnectivities');
#880=(
GEOMETRIC_REPRESENTATION_CONTEXT(3)
GLOBAL_UNCERTAINTY_ASSIGNED_CONTEXT((#878))
GLOBAL_UNIT_ASSIGNED_CONTEXT((#882,#883,#884))
REPRESENTATION_CONTEXT('','3D')
);
#881=(
GEOMETRIC_REPRESENTATION_CONTEXT(3)
GLOBAL_UNCERTAINTY_ASSIGNED_CONTEXT((#879))
GLOBAL_UNIT_ASSIGNED_CONTEXT((#882,#883,#884))
REPRESENTATION_CONTEXT('','3D')
);
#882=(
LENGTH_UNIT()
NAMED_UNIT(*)
SI_UNIT(.MILLI.,.METRE.)
);
#883=(
NAMED_UNIT(*)
PLANE_ANGLE_UNIT()
SI_UNIT($,.RADIAN.)
);
#884=(
NAMED_UNIT(*)
SI_UNIT($,.STERADIAN.)
SOLID_ANGLE_UNIT()
);
#885=SHAPE_DEFINITION_REPRESENTATION(#886,#887);
#886=PRODUCT_DEFINITION_SHAPE('',$,#889);
#887=SHAPE_REPRESENTATION('',(#542),#880);
#888=PRODUCT_DEFINITION_CONTEXT('part definition',#893,'design');
#889=PRODUCT_DEFINITION('2026-05-25-03-49-24-928','wild tamagotchi',#890,
#888);
#890=PRODUCT_DEFINITION_FORMATION('',$,#895);
#891=PRODUCT_RELATED_PRODUCT_CATEGORY('wild tamagotchi',
'wild tamagotchi',(#895));
#892=APPLICATION_PROTOCOL_DEFINITION('international standard',
'automotive_design',2009,#893);
#893=APPLICATION_CONTEXT(
'Core Data for Automotive Mechanical Design Process');
#894=PRODUCT_CONTEXT('part definition',#893,'mechanical');
#895=PRODUCT('2026-05-25-03-49-24-928','wild tamagotchi',$,(#894));
#896=PRESENTATION_STYLE_ASSIGNMENT((#899));
#897=PRESENTATION_STYLE_ASSIGNMENT((#900));
#898=PRESENTATION_STYLE_ASSIGNMENT((#901));
#899=SURFACE_STYLE_USAGE(.BOTH.,#902);
#900=SURFACE_STYLE_USAGE(.BOTH.,#903);
#901=SURFACE_STYLE_USAGE(.BOTH.,#904);
#902=SURFACE_SIDE_STYLE('',(#905));
#903=SURFACE_SIDE_STYLE('',(#906));
#904=SURFACE_SIDE_STYLE('',(#907));
#905=SURFACE_STYLE_FILL_AREA(#908);
#906=SURFACE_STYLE_FILL_AREA(#909);
#907=SURFACE_STYLE_FILL_AREA(#910);
#908=FILL_AREA_STYLE('Steel - Satin',(#911));
#909=FILL_AREA_STYLE('Powder Coat - Rough (Black)',(#912));
#910=FILL_AREA_STYLE('Powder Coat - Rough (White)',(#913));
#911=FILL_AREA_STYLE_COLOUR('Steel - Satin',#914);
#912=FILL_AREA_STYLE_COLOUR('Powder Coat - Rough (Black)',#915);
#913=FILL_AREA_STYLE_COLOUR('Powder Coat - Rough (White)',#916);
#914=COLOUR_RGB('Steel - Satin',0.627450980392157,0.627450980392157,0.627450980392157);
#915=COLOUR_RGB('Powder Coat - Rough (Black)',0.0980392156862745,0.0980392156862745,
0.0980392156862745);
#916=COLOUR_RGB('Powder Coat - Rough (White)',0.964705882352941,0.964705882352941,
0.952941176470588);
ENDSEC;
END-ISO-10303-21;
